<svg xmlns="http://www.w3.org/2000/svg" xmlns:xlink="http://www.w3.org/1999/xlink" viewBox="0 0 33.56 19.58"><defs><style>.cls-1{fill:none}.cls-2{clip-path:url(#clip-path)}.cls-3{fill:#fff}.cls-4{fill:#bd0034}.cls-5{fill:#1a237b}</style><clipPath id="clip-path"><rect width="33.56" height="19.58" class="cls-1"/></clipPath></defs><title>Ресурс 1</title><g id="Шар_2" data-name="Шар 2"><g id="_4" data-name="4"><g id="UNITED_KINGDOM" data-name="UNITED KINGDOM"><g class="cls-2"><rect width="33.56" height="19.58" class="cls-3"/><polygon points="22.47 7.08 33.56 .87 33.56 0 32.8 0 20.15 7.08 22.47 7.08" class="cls-4"/><polygon points="21.95 12.89 33.56 19.39 33.56 18.09 24.27 12.89 21.95 12.89" class="cls-4"/><polygon points="0 1.49 9.94 7.08 12.26 7.08 0 .19 0 1.49" class="cls-4"/><polygon points="11.73 12.89 0 19.46 0 19.58 2.12 19.58 14.05 12.89 11.73 12.89" class="cls-4"/><polygon points="31.27 0 19.52 0 19.52 6.58 31.27 0" class="cls-5"/><polygon points="14.33 0 2.62 0 14.33 6.58 14.33 0" class="cls-5"/><polygon points="33.56 7.08 33.56 2.59 25.59 7.08 33.56 7.08" class="cls-5"/><polygon points="33.56 17.34 33.56 12.89 25.59 12.89 33.56 17.34" class="cls-5"/><polygon points="3.29 19.58 14.33 19.58 14.33 13.39 3.29 19.58" class="cls-5"/><polygon points="19.52 19.58 30.59 19.58 19.52 13.39 19.52 19.58" class="cls-5"/><polygon points="0 12.89 0 17.54 8.25 12.89 0 12.89" class="cls-5"/><polygon points="0 7.08 8.25 7.08 0 2.43 0 7.08" class="cls-5"/><polygon points="15.36 0 15.36 8.24 0 8.24 0 11.73 15.36 11.73 15.36 19.58 18.48 19.58 18.48 11.73 33.56 11.73 33.56 8.24 18.48 8.24 18.48 0 15.36 0" class="cls-4"/></g></g></g></g></svg>